<?xml version="1.0" standalone="no"?>
<!DOCTYPE svg PUBLIC "-//W3C//DTD SVG 1.1//EN" "http://www.w3.org/Graphics/SVG/1.1/DTD/svg11.dtd" >
<svg xmlns="http://www.w3.org/2000/svg">
<metadata>
This is a custom SVG webfont generated by Font Squirrel.
</metadata>
<defs>
<font id="webfontnJp7m2lP" horiz-adv-x="401" >
<font-face units-per-em="1024" ascent="819" descent="-205" />
<missing-glyph horiz-adv-x="500" />
<glyph unicode=" " />
<glyph unicode="!" horiz-adv-x="348" d="M318 738q-15 -39 -73 -47q-8 -2 -8 -25q0 -14 3 -36q5 -39 21 -124q13 -70 13 -136q0 -17 -1 -33q-4 -78 -108 -101q-18 -4 -33 -4h-6q-11 1 -11 14q0 6 2 14q10 35 68 48q18 0 18 20q0 15 -11 42l-38 93q-14 74 -14 144q0 23 2 46q5 91 132 112q14 2 28 2h10 q10 -1 10 -12q0 -7 -4 -17zM297 4q0 -16 -28.5 -36t-45.5 -20q-20 0 -46 26l-61 61q-24 24 -24 39q0 16 28 36.5t46 20.5q20 0 46 -26l61 -62q12 -12 20 -27q4 -8 4 -12z" />
<glyph unicode="&#x22;" horiz-adv-x="429" d="M383 719v-8q0 -49 -11 -141q-10 -87 -10 -138v-8v-6.5v-2.5q0 -27 -48 -27q-47 0 -47 27v5t0.5 14.5t0.5 27.5q0 61 -3.5 158t-3.5 100q0 27 60 27q62 0 62 -28zM192 719v-7q0 -48 -12 -144q-9 -83 -9 -134v-9.5v-7v-2.5q0 -27 -48 -27q-47 0 -47 27v7t0.5 21t0.5 38 q0 37 -1 83l-5 155q-1 28 59 28q62 0 62 -28z" />
<glyph unicode="#" horiz-adv-x="781" d="M765 231q-4 -48 -181 -68v-84q0 -35 -10.5 -51.5t-42.5 -28.5q-19 -7 -31 -7t-16 7q-7 16 -7 38l-1 116q-72 -6 -151 -6l1 -68v-5q0 -29 -10 -46q-12 -17 -44 -29q-18 -7 -30 -7q-8 0 -12 3q-10 8 -11 42l-1 111q-78 1 -172 9q-24 2 -36 8q-6 2 -6 9q0 10 13 30 q25 38 76 38q6 0 12 -1q18 -2 55 -5l57 -4l-1 121q-62 2 -146 9q-24 2 -36 8q-5 3 -5 10q0 11 12 29q27 38 74 38q8 0 16 -1l85 -8l-1 130l-69 -12q-11 -2 -23 -2l-15 1q-10 1 -10 12q0 8 5 21q11 27 29 38q14 7 46 13l106 18q13 2 21 2q6 0 10 -1q7 -3 7 -22l1 -208 q40 -4 79 -7l73 -7l-1 152l-42 -9q-16 -4 -29 -4q-5 0 -10 1q-10 1 -10 14q0 7 3 18q13 41 71 53l82 17q16 3 25 3q5 0 8 -1q8 -3 8 -22l2 -233q34 -3 39 -3v9q0 49 50 69q20 8 32 8t16 -8q7 -15 9 -42q-6 -45 -146 -65l1 -170q62 -6 73 -6h2v5q0 28 10 44t40 29q20 8 32 8 q11 0 15 -8q8 -16 10 -37v-5zM476 210l-1 148q-71 -6 -151 -6l1 -129q4 0 151 -13z" />
<glyph unicode="$" horiz-adv-x="724" d="M661 625q1 -6 -11 -28q-6 -9 -20 -35l-27 -50q-28 -52 -77 -55q-18 -1 -26.5 2.5t-6.5 11.5q2 16 13 36l28 50q1 1 2 3q-60 13 -117 18l3 -209q184 -73 230 -144q16 -25 16 -50q0 -23 -13 -46q-29 -51 -106 -87q-51 -24 -120 -37l1 -58v-5q0 -29 -10 -46q-12 -18 -44 -30 q-17 -7 -28 -7q-9 0 -14 4q-10 8 -11 42l-2 88q-35 -3 -69 -3q-59 0 -118 8q-15 2 -16.5 3t-4.5 13q-8 41 -26 124q-3 12 -3 24q0 10 2 19q3 23 42 41q21 10 34 10q11 0 16 -7q10 -15 22 -68q5 -26 16 -78q51 -6 104 -6l-4 227q-210 83 -257 159q-14 23 -14 47t15 48 q59 93 250 108l-1 49l-69 -11q-16 -3 -28 -3q-6 0 -11 1q-9 1 -9 12q0 8 5 22q16 41 75 51l106 18q11 2 19 2t12 -2q6 -3 6 -21l2 -114q114 -4 220 -30q22 -5 24 -11zM314 415l-3 167q-90 -4 -141 -22q-15 -5 -18 -8q-1 -2 -1 -5q0 -9 9 -25q31 -50 154 -107zM560 125 q2 4 2 9q0 12 -11 27q-29 42 -127 92l3 -171q68 9 111 29q19 9 22 14z" />
<glyph unicode="&#x26;" horiz-adv-x="792" d="M804 401q0 -52 -180 -112v-10q0 -130 -50 -209q-62 -97 -191 -104h-16q-112 0 -223 88q-113 90 -113 192q0 111 122 163q-21 12 -27 22q-20 22 -20 50q0 22 13 48q33 66 124 108q82 39 163 39q69 0 125 -37q30 -20 30 -35q0 -14 -25 -35q-28 -24 -47 -24q-4 0 -7 1 q-19 4 -40 18q-41 26 -88 26h-13q-97 -7 -125 -54q-4 -8 -4 -16q0 -33 76 -55q44 -13 134 -16q21 -1 21 -16q0 -10 -11 -28q-17 -27 -25 -33q-11 -9 -31 -9q-5 0 -11 1h-11q-217 0 -218 -78v-1q0 -76 101 -159q93 -76 183 -76h9q88 4 88 186v20q-112 -32 -229 -49 q-11 -1 -20.5 -1t-17.5 1q-10 1 -10 11q0 8 6 22q18 43 76 51q33 4 101 15l100 16q10 16 40 32q19 10 32 10q8 0 13 -3q10 -7 13 -22q70 12 77 17q-5 16 -5 33v9q1 21 40 41q22 12 36 12q10 0 16 -6q12 -15 18 -36q1 -2 1 -8z" />
<glyph unicode="'" horiz-adv-x="234" d="M184 719v-7q0 -48 -12 -144q-9 -83 -9 -134v-9.5v-7v-2.5q0 -27 -48 -27q-47 0 -47 27v7t0.5 21t0.5 38q0 37 -1 83l-5 155q-1 28 59 28q62 0 62 -28z" />
<glyph unicode="(" horiz-adv-x="345" d="M368 764q-12 -17 -27 -29q-216 -181 -216 -373v-5q3 -198 215 -404q25 -24 25 -39q0 -17 -28 -37t-46 -20q-19 0 -46 26q-224 219 -227 432v5q0 233 263 455q16 13 35 24q7 3 14 3q13 0 26 -8q16 -10 16 -20q0 -5 -4 -10z" />
<glyph unicode=")" horiz-adv-x="398" d="M356 343v-5q0 -233 -264 -453q-20 -17 -35 -25q-7 -3 -14 -3q-12 0 -26 9q-15 9 -15 20q0 4 3 9q8 13 28 29q216 179 216 373q0 196 -216 409q-25 24 -25 39q0 16 28.5 36.5t45.5 20.5q20 0 47 -26q223 -222 227 -433z" />
<glyph unicode="*" horiz-adv-x="580" d="M534 423q0 -13 -25 -35q-27 -24 -46 -24q-4 0 -8 1q-22 5 -41 17l-76 48l-2 -60q-1 -33 -12.5 -50t-43.5 -29q-19 -7 -30 -7q-12 0 -16 8q-5 15 -5 39l4 121l-98 -61q-31 -19 -45 -19q-11 0 -20.5 11.5t-9.5 23.5q0 17 39 41l105 65l-150 94q-31 20 -31 34q0 15 24 36 q28 24 48 24q3 0 6 -1q23 -5 41 -17l96 -60l2 60q2 35 12.5 51t42.5 28q20 7 31 7q12 0 15 -8q7 -18 6 -38l-4 -123l117 73q21 13 37 19q4 1 8 1q14 0 23 -16q6 -10 6 -18q0 -10 -7 -18q-6 -8 -32 -24l-124 -78l131 -82q32 -20 32 -34z" />
<glyph unicode="+" horiz-adv-x="586" d="M536 320q-90 -86 -175 -86q-8 0 -16 1l-2 -100q-1 -33 -13 -50t-42 -29q-19 -7 -31 -7q-8 0 -13 4q-8 7 -8 35v7l4 178q-4 2 -19 11q-55 31 -76 31q-16 0 -33.5 -17.5t-33.5 -31.5q-11 -10 -29 -10q-8 0 -17 2q-25 5 -25 15q0 13 21 39q62 79 115 90q19 3 38 3 q31 0 62 -11l4 146q1 35 11.5 51.5t42.5 28.5q17 7 29 7q9 0 14 -5q10 -9 10 -42l-6 -241q29 -14 59 -15h2q29 0 59 29q32 30 52 30q12 0 27.5 -7.5t15.5 -17.5q0 -12 -27 -38z" />
<glyph unicode="," horiz-adv-x="312" d="M251 17q-3 -62 -40 -120q-20 -32 -50 -54q-11 -8 -27 -8q-9 0 -20 3q-24 6 -24 17t24 38q3 3 5 7q23 37 25 79v7q0 54 -42 91q-17 10 -49 41q-2 3 -2 7q0 14 26 36q29 24 48 24q3 0 6 -1q34 -8 64 -35q56 -50 56 -122v-10z" />
<glyph unicode="-" horiz-adv-x="586" d="M552 320q-92 -88 -160 -88q-62 0 -155 52q-54 31 -76 31q-15 0 -35 -19q-15 -16 -31 -30q-11 -10 -30 -10q-8 0 -17 2q-25 4 -25 17q0 2 1 4q5 15 20 33q79 96 140 96q5 0 11 -1q64 -10 128 -46q40 -22 80 -35q10 -3 20 -3q30 0 61 29q16 15 34 26q9 5 19 5q11 0 24 -6 q18 -9 18 -19q0 -12 -27 -38z" />
<glyph unicode="." horiz-adv-x="350" d="M301 11q0 -16 -28.5 -35.5t-45.5 -19.5q-19 0 -46 26l-61 60q-24 24 -24 39q0 17 27.5 37t45.5 20q20 0 46 -26l61 -61q25 -25 25 -40z" />
<glyph unicode="/" horiz-adv-x="559" d="M562 717l-457 -771q-30 -51 -78 -52q-16 0 -24 4q-6 3 -6 9v3q5 17 15 35l456 771q17 28 32.5 39.5t44.5 11.5q32 0 32 -14q0 -12 -15 -36z" />
<glyph unicode="0" horiz-adv-x="744" d="M715 296q-25 -129 -147 -214q-121 -84 -264 -84h-10q-154 3 -223 90q-43 55 -45 140v6q0 183 172 350q92 89 213 126q20 6 38 7h2q7 0 11 -7q3 -7 0 -22q-4 -23 -20 -36q54 -22 111.5 -62t91.5 -81l7 -9q67 -84 67 -166q0 -19 -4 -38zM609 266q3 13 3 27q0 65 -58 140 l-4 5q-36 44 -91.5 82t-106.5 56q-28 10 -34 18q-102 -65 -156 -188q-30 -69 -30 -132q0 -95 64 -145q56 -44 152 -47h11q88 0 155 44q77 51 95 140z" />
<glyph unicode="1" horiz-adv-x="499" d="M485 51q-18 -42 -78 -49l-90 -10q-15 -2 -22 -2q-5 0 -7 1q-6 3 -6 21l1 567l-241 -82q-24 -8 -37 -9q-9 -1 -13 6q-2 5 -2 16v6q2 25 19 38q11 9 40 19l291 100q16 5 27 5q23 0 23 -23l-1 -576l55 7q13 2 22 2q11 0 17 -3q8 -4 8 -13t-6 -21z" />
<glyph unicode="2" horiz-adv-x="722" d="M692 188q1 -8 1 -16q0 -11 -2 -22q-37 -162 -261 -171h-22q-127 0 -326 52q-21 6 -21 19q0 14 20 35q64 68 263 231l36 30q53 42 69 57q38 35 61 66q30 40 30 65q0 42 -62 53q-22 4 -48 4q-22 0 -46 -3q-64 -9 -118 -35q-69 -35 -82 -85q-8 -32 -21.5 -47.5t-46.5 -23.5 q-14 -4 -24 -4q-16 0 -17 11q-1 4 -1 8q0 13 5 30q24 94 136 159q92 54 205 70q38 5 69 5q50 0 88 -13q70 -25 70 -87v-5q-4 -92 -172 -235l-276 -234q164 -39 261 -39h18q94 4 107 59q8 33 21 48.5t45 23.5q15 4 25 4q15 0 16 -10z" />
<glyph unicode="3" horiz-adv-x="673" d="M654 306q0 -98 -97 -176q-77 -62 -190 -96q-75 -23 -171 -23q-79 0 -173 16q-23 4 -35 12q-5 3 -5 9q0 11 15 31q24 30 47 32q10 1 19 1q14 0 25 -2q91 -16 162 -16q72 0 137 19q78 23 118.5 64.5t40.5 91.5q0 55 -48 86q-39 25 -99 29q-8 1 -17 1q-55 0 -130 -23 q-52 -22 -65 -22q-16 0 -16 27v3q2 34 32 49l59 20q100 37 117 72q4 7 4 15q0 15 -17 29q-19 15 -47 22q-20 5 -43 5q-22 0 -46 -4q-49 -9 -88 -45q-15 -15 -34 -25q-8 -5 -18 -5q-11 0 -24 6q-19 9 -19 19q0 11 29 38q75 70 162 90q49 10 90 10q102 0 145 -54 q17 -21 17 -46q0 -48 -51 -97q87 0 144 -36q70 -43 70 -127z" />
<glyph unicode="4" horiz-adv-x="683" d="M644 212q1 -2 1 -5q0 -17 -32 -38q-27 -18 -43 -18q-21 0 -43 32q-9 9 -15 13l-1 -117l56 7q7 1 15 1q11 0 22 -2q9 -2 9 -11t-6 -23q-20 -43 -77 -49l-91 -10q-15 -2 -23 -2q-5 0 -7 1q-6 3 -5 21l1 204h-28q-144 -3 -334 -53q-7 -2 -12 -2q-17 0 -24 15q-4 7 -4 14 q0 12 13 26l405 431q25 27 58 30h7q26 0 26 -22v-358q84 -10 114 -48q12 -16 18 -37zM405 300v226l-244 -259q135 27 244 33z" />
<glyph unicode="5" horiz-adv-x="685" d="M641 660q-4 -15 -15 -34q-49 -83 -145 -83q-9 0 -18 1q-101 7 -218 32l-74 15l-13 -104l-9 -67q-4 -33 -9 -63q207 77 333 77q37 0 67 -7q93 -20 93 -99q0 -83 -115 -202q-78 -82 -205 -164q-18 -12 -37 -19q-5 -2 -10 -2q-13 0 -24 15q-8 10 -8 18.5t8 15.5q12 12 32 25 q206 135 245 239q7 18 7 33q0 14 -5 25q-14 24 -51 32q-22 5 -50 5q-118 0 -338 -89q-23 -9 -36 -9q-20 0 -20 20q0 -4 13 91l24 183q6 47 13 82q3 16 32.5 37t46.5 21q45 -1 160 -26q169 -37 206 -37q9 0 10 2q18 29 31 39q17 13 47 13q35 0 32 -16z" />
<glyph unicode="6" horiz-adv-x="685" d="M642 360q0 -94 -75 -195q-87 -118 -191 -142q-20 -5 -44 -5h-8q-105 0 -182 52q-90 60 -90 162q0 127 151 300q90 102 251 222q17 12 36 22q6 3 11 3q13 0 26 -13q12 -10 12 -20q0 -6 -5 -12q-11 -13 -30 -27q-109 -81 -189 -161q31 2 59 2q226 0 262 -138q6 -25 6 -50z M535 324q0 14 -5 34q-27 106 -207 106q-28 0 -59 -3q-20 -2 -25 -1q-80 -106 -80 -187q0 -79 72 -128q63 -43 152 -43q4 0 12 2q39 10 85 71q55 74 55 149z" />
<glyph unicode="7" horiz-adv-x="637" d="M629 637q-40 -72 -128.5 -201t-118.5 -184q-53 -98 -76 -205q-6 -30 -19 -44t-42 -23q-17 -5 -28 -5q-14 0 -16 9q-1 7 -1 15q0 10 2 23q17 103 81 220q35 65 128 199l42 61q21 31 40 63q-45 -10 -90 -10q-47 0 -161 18q-42 6 -102 13q-14 1 -24 1q-22 0 -32 -5l-41 -23 q-6 -3 -12 -3q-12 0 -25 12q-10 11 -10 20q0 7 6 13q13 16 30 28q55 41 123 41h6q52 -2 142 -13q103 -14 143 -17q10 -1 20 -1q57 0 100 25q17 10 32 10q10 0 19 -5q15 -8 15 -20q0 -5 -3 -12z" />
<glyph unicode="8" horiz-adv-x="667" d="M626 178q-10 -60 -69 -108q-49 -38 -117 -59q-63 -19 -143 -19q-27 0 -57 2q-126 10 -178 73q-26 32 -26 75q0 44 31 90q51 74 162 122q-83 45 -106 110q-8 22 -8 43q0 15 4 30q27 99 164 128q27 5 58 5q43 0 94 -10q80 -16 114 -70q19 -29 19 -66v-7q-3 -86 -90 -149 q98 -41 133 -106q17 -31 17 -63q0 -11 -2 -21zM461 483q0 36 -28 62q-26 23 -67 32q-50 10 -84 10q-36 0 -52 -12q-5 -5 -6 -13q-2 -8 -2 -17q0 -40 52 -86q35 -31 95 -52q4 -1 13 -7q3 0 9 2q23 4 38.5 14.5t21.5 24t8 23t2 19.5zM520 147q1 7 1 15q0 52 -74 101 q-45 29 -118 47q-2 0 -11 -2q-176 -38 -176 -126q0 -26 18 -48q38 -47 140 -56q32 -3 59 -3q104 0 144 39q13 13 17 33z" />
<glyph unicode="9" horiz-adv-x="676" d="M631 458q0 -127 -152 -299q-91 -102 -250 -221q-16 -12 -36 -22q-6 -2 -12 -2q-13 0 -25 12q-12 11 -12 20q0 6 5 12q11 14 29 27q111 81 190 160q-32 -2 -61 -2q-230 0 -261 143q-4 19 -4 40q0 99 74 200q84 115 191 142q20 5 44 5q113 0 190 -52q90 -61 90 -163z M452 546q-64 43 -152 43q-5 0 -12 -2q-42 -11 -85 -71q-55 -75 -55 -149q0 -19 4 -34q29 -106 207 -106q28 0 60 3q20 2 25 1q80 106 80 187q0 80 -72 128z" />
<glyph unicode=":" horiz-adv-x="335" d="M279 287q0 -16 -28.5 -36.5t-46.5 -20.5t-45 27l-61 61q-24 24 -24 39q0 17 27.5 37t45.5 20q20 0 46 -26l61 -61q25 -25 25 -40zM279 11q0 -16 -28.5 -35.5t-45.5 -19.5q-19 0 -46 26l-61 60q-24 24 -24 39q0 17 27.5 37t45.5 20q20 0 46 -26l61 -61q25 -25 25 -40z" />
<glyph unicode=";" horiz-adv-x="332" d="M261 324q0 -16 -28.5 -36.5t-46.5 -20.5t-45 27l-61 61q-24 24 -24 39q0 17 27.5 37t45.5 20q20 0 46 -26l61 -61q25 -25 25 -40zM290 17q-3 -62 -40 -120q-20 -32 -50 -54q-11 -8 -27 -8q-9 0 -20 3q-24 6 -24 17t24 38q3 3 5 7q23 37 25 79v7q0 54 -42 91 q-17 10 -49 41q-2 3 -2 7q0 14 26 36q29 24 48 24q3 0 6 -1q34 -8 64 -35q56 -50 56 -122v-10z" />
<glyph unicode="?" horiz-adv-x="720" d="M683 567q-7 -97 -175 -232q-24 -20 -51 -38q32 -8 71 -25q9 -4 19 -15t11 -11q2 0 4 2q17 13 35 22q7 3 15 3q12 0 25 -9q13 -10 13 -19q0 -6 -4 -11q-12 -16 -29 -29q-45 -37 -80 -37q-5 0 -10 1q-23 4 -84 26q-54 20 -79 20q-24 0 -48 -15q-8 -5 -15 -5q-13 0 -25 13.5 t-12 26.5q0 11 11 18q1 1 3.5 2.5t3.5 2.5l99 66q44 31 71 53q125 100 125 156q0 40 -63 52q-23 4 -49 4q-22 0 -46 -3q-64 -8 -118 -35q-70 -34 -83 -83q-9 -33 -22 -48t-46 -23q-14 -4 -24 -4q-16 0 -17 11q-1 4 -1 8q0 13 5 30q24 94 136 159q93 53 206 68q37 5 68 5 q52 0 91 -14q69 -25 69 -85v-8zM494 10q0 -17 -28 -36.5t-45 -19.5q-19 0 -46 26l-62 60q-24 23 -24 39q0 17 27.5 37t45.5 20q21 0 47 -26l61 -61q24 -24 24 -39z" />
<glyph unicode="@" horiz-adv-x="946" d="M915 295q0 -99 -86 -191q-104 -112 -404 -169q-6 -2 -12 -2l-12 2l-86 29q-17 6 -17 20q0 18 29 43l41 31l38 31q-144 102 -172 182q-12 35 -12 64q0 94 116 143q61 25 127 25q126 0 181 -73q23 -30 23 -74q0 -37 -17 -83q-35 -101 -212 -245l28 -9q340 69 340 243 q0 78 -76 167q-119 138 -299 185q-50 13 -93 13q-32 0 -60 -7q-81 -20 -117 -135q-14 -43 -14 -103q0 -104 40 -261q4 -15 4 -29q0 -7 -1 -14q-2 -21 -41 -40q-24 -11 -37 -11q-10 0 -14 6q-11 14 -16 37q-37 151 -37 263t37 186q75 147 216 182q41 10 85 10q51 0 107 -13 q207 -49 340 -205q83 -98 83 -198zM558 286q3 14 3 27q0 66 -73 92q-36 13 -75 13q-90 0 -90 -52q0 -24 17 -56q31 -57 148 -142q61 69 70 118z" />
<glyph unicode="A" horiz-adv-x="735" d="M706 119q3 -8 3 -15q0 -13 -10 -23q-9 -9 -35 -22l-60 -31q-27 -14 -42 -14q-18 0 -22 24l-2 39q-1 20 -4 62q-97 -91 -217 -120q-53 -13 -100 -13q-75 0 -130 34l-20 15q-45 38 -45 88q0 93 137 173q129 75 341 109q-21 80 -57 136q-6 -4 -12 -6q-26 -12 -29 -15 q-18 -14 -36 -23q-6 -3 -12 -3q-12 0 -25.5 11t-13.5 21q0 4 3 9q24 30 65 51l36 18q28 13 29 15q17 14 43 18q6 1 11 1q16 0 23 -7q63 -84 89 -213q14 -2 14 -15q0 -9 -6 -21v-1h-1q23 -156 23 -276q19 9 37 14q3 1 5 1q14 0 20 -21zM528 246q-6 59 -13 103 q-217 -29 -325 -93q-62 -38 -62 -74q0 -9 4 -18q6 -18 27 -37q8 -7 16 -11q40 -25 93 -25q79 0 153 44q43 26 74 65z" />
<glyph unicode="B" horiz-adv-x="681" d="M646 301q1 -99 -78 -178q-67 -68 -170 -103q-62 -21 -138 -21q-66 0 -144 16q-11 -1 -16 5.5t-3 15.5v9q0 86 -17 236q-19 158 -19 228q0 25 2 49l-53 -15q-22 -6 -39 -6q-13 -1 -13 16q0 5 2 13q8 40 63 56l103 30q13 4 22 4q24 0 24 -22q0 -2 -0.5 -11.5t-1.5 -25 t-1 -34.5q48 50 111 75q46 17 90 17q22 0 44 -4q51 -10 80 -44l4 -5q16 -22 16 -47q0 -45 -44 -98q76 -2 123 -40q51 -41 53 -116zM539 259q-2 52 -38 84q-34 29 -87 29q-42 0 -145 -40q-6 -2 -10 -2q-15 0 -18 27q-1 5 -1 9q0 27 22 37l50 22q79 38 92 74q2 6 2 13 q0 14 -11 28l-3 4q-14 17 -46 24q-13 3 -25 3q-50 0 -87 -43q-34 -38 -62 -38h-1q2 -54 18 -198q15 -125 15 -198q58 -11 105 -11q128 0 191 71q40 46 39 105z" />
<glyph unicode="C" horiz-adv-x="654" d="M626 233q-6 -14 -20 -33q-130 -166 -242 -187q-28 -5 -55 -5q-100 0 -174 76q-64 68 -89 172q-14 54 -14 111v14q5 198 181 270q40 17 91 17q91 0 213 -52q19 -8 32 -21q3 -3 3 -8q0 -13 -21 -34q-28 -27 -49 -27h-4q-21 2 -42 11q-99 42 -161 42q-91 0 -118 -66 q-18 -44 -19 -97v-11q0 -104 55 -199q62 -108 153 -108q87 0 175 114q32 42 69 42q5 0 10 -1q27 -4 27 -16q0 -2 -1 -4z" />
<glyph unicode="D" horiz-adv-x="680" d="M634 354q23 -68 23 -122q0 -66 -34 -112q-49 -66 -137 -100q-78 -31 -168 -31q-184 0 -253 100q-26 37 -26 85q0 46 23 103q48 117 267 275q-87 74 -161 130q-10 7 -10 17q0 9 9 22q18 25 51 36l131 43q21 7 38 8q8 0 11.5 -7t2.5 -21q-3 -26 -20 -39q-11 -8 -41 -18 l-27 -9q269 -212 321 -360zM547 276q-27 92 -168 230q-172 -124 -212 -212q-20 -46 -20 -82q0 -83 102 -119q57 -20 120 -20q125 0 167 57q22 31 22 76q0 31 -11 70z" />
<glyph unicode="E" horiz-adv-x="712" d="M672 233q-6 -16 -19 -33q-129 -166 -242 -187q-29 -5 -55 -5q-101 0 -173 76q-62 66 -90 172q-8 33 -13 68q-6 0 -46 5q-23 3 -36 10q-6 2 -6 9q0 11 14 30q28 36 70 36h5q4 45 21 85q45 106 157 152q41 17 92 17q90 0 212 -52q36 -15 36 -29q0 -12 -22 -34 q-27 -27 -48 -27h-4q-21 2 -43 11q-98 42 -161 42q-37 0 -69 -16q-35 -18 -49 -50q-18 -44 -18 -100v-11q257 -33 310 -33q11 0 13 1v5q0 28 10 44q11 17 41 29q20 8 32 8t16 -8q7 -16 8 -38v-2v-4q-7 -50 -135 -71q-101 -17 -217 -17q-33 0 -67 1q2 -5 2 -8 q31 -119 109 -181q38 -30 87 -30q88 0 174 114q20 25 33 34q13 8 32 8q7 0 14 -1q26 -3 26 -15q0 -2 -1 -5z" />
<glyph unicode="F" horiz-adv-x="534" d="M489 241q0 -5 -1 -7q-7 -44 -97 -65q-56 -14 -128 -16q22 -131 23 -215v-5q0 -30 -10 -46q-11 -18 -42 -31q-18 -6 -29 -6q-10 0 -15 4q-10 8 -11 42q-1 105 -32 259q-32 1 -76 8q-22 4 -35 11q-5 3 -5 9q0 11 15 31q27 35 65 35q8 0 16 -1q-8 38 -19 82q-27 114 -44 214 q-6 39 -6 72q0 87 47.5 140.5t131.5 53.5q65 0 156 -31q51 -17 64.5 -34.5t15.5 -71.5l4 -82v-11q0 -26 -8 -40q-10 -17 -42 -30q-21 -8 -33 -8q-11 0 -15 7q-8 16 -9 38l-3 67l-4 66q-118 47 -163 47q-23 0 -27 -10q-9 -24 -9 -60q0 -33 7 -75q13 -74 78 -355l91 -19 q34 -7 41 -7h1v5q0 28 10 44q12 17 42 29q20 8 31.5 8t15.5 -8q7 -16 8 -38z" />
<glyph unicode="G" horiz-adv-x="713" d="M676 103v-10q0 -80 -58 -181q-30 -52 -77 -53h-7q-13 0 -20 3q-8 4 -6 12q3 15 14 35q46 82 46 168q0 26 -3 52q-17 -22 -31 -35q-97 -91 -223 -91q-75 0 -139 52q-56 46 -90 121q-41 91 -41 186q0 14 1 28q8 129 101 204q77 63 188 63q86 0 196 -47q19 -8 32 -21 q3 -3 3 -8q0 -13 -21 -34q-27 -27 -49 -27h-4q-20 2 -42 11q-97 41 -158 43h-7q-67 0 -98 -36q-29 -35 -34 -111q-1 -13 -1 -27q0 -83 38 -165q68 -147 171 -147q69 0 110 39q57 55 57 170q0 23 -2 47v6q0 39 47 60q19 8 32 8q23 0 28 -27l32 -156q12 -65 15 -132z" />
<glyph unicode="H" horiz-adv-x="639" d="M607 64q6 -3 6 -10q0 -10 -13 -28q-26 -37 -75 -37q-7 0 -15 1q-27 2 -80 7l-8 1q-13 2 -28 6q-3 2 6 26q71 195 71 336q0 176 -83 186h-4q-19 0 -39 -18q-78 -71 -116 -228q-29 -117 -31 -259q-1 -42 -53 -63q-18 -6 -29 -6q-24 0 -25 28l-12 558q-2 86 -3 173 q-9 -3 -8 -3q-22 -11 -69 -29q-4 -1 -7 -1q-13 0 -22 19q-3 6 -3 13q0 23 41 47q32 19 73 30q20 6 33 13q22 12 40 12h7q21 -4 21 -22l3 -185q2 -92 5 -184q39 76 98 128q71 63 144 63q82 0 120 -81q25 -53 25 -144q0 -150 -87 -332q30 -3 60 -5q40 -4 57 -12z" />
<glyph unicode="I" horiz-adv-x="649" d="M614 -14q0 -4 -6 -6q-7 -1 -21 1q-41 7 -57 43q-1 3 -12 3q-34 0 -169 -27q-92 -18 -166 -22h-7q-72 0 -108 63q-8 15 -10 25q-1 5 5.5 7.5t20.5 0.5q35 -4 58 -41q0 -17 18 -17q15 0 42 11l89 38l2 1h2l-22 481q0 8 -6 14q-5 4 -29 0q-30 -5 -58 -5t-56 5q-51 8 -78 58 q-7 13 -9 25v1q0 4 5 6q7 2 20 1q33 -4 58 -40q0 -17 18 -17q15 0 42 11l89 38q94 19 186 23h6q86 0 124 -78q6 -12 7 -25q1 -5 -6 -7q-7 -1 -21 1q-40 7 -57 44q-1 3 -13 3q-10 0 -28 -2q-39 -5 -89 -15l24 -503q26 3 50 3q117 0 155 -77q7 -14 7 -25z" />
<glyph unicode="J" horiz-adv-x="315" d="M243 469q1 -29 1 -56q0 -174 -23 -255q-39 -137 -188 -309q-20 -23 -33 -31q-12 -7 -28 -7q-7 0 -16 2q-24 5 -24 17q0 11 22 37q129 151 162 275q17 60 20 141v51v93v77v43v46l-92 -12q-11 -1 -20.5 -1t-17.5 1q-9 2 -9 11t7 24q19 42 78 49q63 7 127 16q12 1 19 1 t10 -1q5 -3 5 -17v-5q0 -49 -0.5 -96.5t0.5 -93.5z" />
<glyph unicode="K" horiz-adv-x="643" d="M648 82q3 -9 3 -16q0 -21 -43 -44l-70 -37q-17 -9 -37 -10q-18 0 -25 9l-204 280l-12 -14q-49 -94 -58 -204q-3 -42 -54 -62q-17 -6 -29 -6q-24 0 -24 28v1v1v1l-12 555q-2 86 -3 173q-9 -3 -8 -3q-22 -11 -69 -29q-4 -1 -7 -1q-13 0 -22 19q-3 6 -3 13q0 23 41 47 q32 19 73 30q20 6 33 13q22 12 40 12h7q21 -4 21 -22l3 -192l8 -320q44 66 132 157q80 82 80 116q0 11 -6 31t-6 33q0 21 40 42q24 13 37 13q10 0 15 -6q28 -32 28 -78q0 -36 -22 -67q-26 -37 -75 -89q-62 -67 -78 -86l216 -299l26 14q22 12 37 16q3 1 6 1q14 0 21 -20z" />
<glyph unicode="L" horiz-adv-x="533" d="M485 111q0 -86 -97 -96h-6q-22 0 -64 12q-29 9 -72 14h-8q-30 0 -55 -25q-33 -35 -63 -40q-6 -1 -12 -1q-24 0 -24 23l-14 749l-65 -14q-20 -5 -31 -5q-4 0 -7 1q-11 1 -11 13q0 8 4 19q13 41 70 53l106 23q9 2 16 2q25 0 25 -22l12 -710q44 24 87 24q6 0 12 -1 q48 -5 88 -16q0 34 49 55q21 9 33 9q11 0 15 -7q12 -24 12 -60z" />
<glyph unicode="M" horiz-adv-x="957" d="M932 80v-6q0 -32 -50 -54l-86 -37q-25 -11 -39 -11q-20 0 -20 21q0 4 1 9q27 166 27 285q0 180 -47 258q-26 43 -53 45q-5 0 -19 -16q-78 -94 -95 -316q1 -35 1 -69q0 -56 -3 -108q-3 -43 -54 -62q-16 -7 -28 -7q-23 0 -25 28q-2 38 -2 74q0 50 4 98q-10 234 -84 329 q-30 38 -57 38q-3 0 -14 -14q-82 -107 -82 -372q0 -24 1 -49q0 -13 2 -41q0 -13 0.5 -32.5t0.5 -20.5q0 -36 -50 -55q-18 -7 -30 -7q-20 0 -26 25q-1 5 -3 42q-5 127 -16 382q-3 63 -6 138q-4 -2 -12 -4q-23 -6 -36 -13q-18 -12 -36 -17q-3 -1 -6 -1q-14 0 -22 20 q-3 7 -3 14q0 13 10 23q7 8 33 23q30 17 93 36q7 2 18 8q23 12 39 12h7q19 -4 20 -22q1 -32 5 -97q5 6 13 19q65 85 149 88h5q99 0 155 -161q23 51 52 87q69 85 152 85h2q124 -2 150 -260q4 -40 4 -87q0 -106 -20 -246l21 9q22 9 38 12h4q14 0 17 -23z" />
<glyph unicode="N" horiz-adv-x="722" d="M691 77q2 -3 2 -7q0 -10 -12 -27q-28 -39 -52 -39q-3 0 -6 1q-91 8 -125 8h-11q-25 2 -28 7t7 29q83 195 83 333q0 66 -19 114q-25 65 -79 72q-5 1 -11 1l-61 -24q-89 -68 -134 -220q-34 -116 -37 -259q-1 -46 -54 -66q-17 -6 -29 -6q-23 0 -24 28l-4 163l-3 251 q-1 60 -3 145q-23 -5 -67 -21q-22 -11 -36 -14q-2 -1 -5 -1q-14 0 -19 23q-1 4 -1 8q0 28 47 52q30 15 103 34q10 3 23 9q25 12 40 12q21 0 21 -24q1 -42 3 -119l2 -101q47 87 117 145q84 70 170 70q91 0 134 -76q33 -60 33 -157q0 -138 -76 -326l60 -4q46 -4 51 -14z" />
<glyph unicode="O" horiz-adv-x="744" d="M715 296q-25 -129 -147 -214q-121 -84 -264 -84h-10q-154 3 -223 90q-43 55 -45 140v6q0 183 172 350q92 89 213 126q20 6 38 7h2q7 0 11 -7q3 -7 0 -22q-4 -23 -20 -36q54 -22 111.5 -62t91.5 -81l7 -9q67 -84 67 -166q0 -19 -4 -38zM609 266q3 13 3 27q0 65 -58 140 l-4 5q-36 44 -91.5 82t-106.5 56q-28 10 -34 18q-102 -65 -156 -188q-30 -69 -30 -132q0 -95 64 -145q56 -44 152 -47h11q88 0 155 44q77 51 95 140z" />
<glyph unicode="P" horiz-adv-x="691" d="M652 374v-7q0 -188 -157 -284q-57 -35 -139 -35h-5q-65 0 -146 21l6 -202q2 -60 -52 -81q-18 -7 -30 -7q-8 0 -13 4q-11 8 -12 41l-23 750l-65 -15q-15 -4 -28 -4q-5 0 -10 1q-12 1 -12 14q0 7 4 18q13 41 70 53l106 23q9 2 16 2q24 0 25 -22l4 -125q84 120 167 147 q37 11 71 11q94 0 155 -86q66 -93 68 -217zM546 335q-2 54 -17 102q-33 107 -103 143q-13 7 -29 7q-89 0 -180 -180q-13 -26 -22 -35l6 -199q10 -1 28 -7q87 -29 147 -29q37 0 64 11q72 28 92 88q14 41 14 92v7z" />
<glyph unicode="Q" horiz-adv-x="681" d="M725 -150q-13 -41 -71 -53l-106 -22q-10 -2 -17 -2q-23 0 -23 21l-8 365q-83 -108 -161 -130q-32 -10 -62 -10q-77 0 -134 57q-50 50 -73 129q-16 54 -18 117v12q0 55 17 105q35 108 137 172q59 37 146 37q62 0 138 -19q0 47 53 68q17 7 28 7q9 0 14 -5q11 -8 12 -41 l17 -793l66 14q16 4 28 4q5 0 9 -1q11 -1 11 -14q0 -7 -3 -18zM497 308l-5 217q-6 1 -17 5q-88 29 -148 29q-37 0 -64 -11q-105 -41 -105 -178v-10q1 -49 18 -101q33 -108 102 -143q14 -7 29 -7q29 0 63 23q54 35 117 158q6 13 10 18z" />
<glyph unicode="R" horiz-adv-x="755" d="M724 65q-1 -18 -9 -38q-30 -74 -90 -74q-45 0 -103 42l-184 143q-65 46 -130 64l11 -182v-8q0 -52 -50 -72q-20 -8 -32 -8q-13 0 -16 8q-8 15 -9 38l-35 596l-65 -15q-15 -4 -28 -4q-5 0 -10 1q-12 1 -12 14q0 7 4 18q13 41 70 53l106 23q9 2 16 2q23 0 24 -21l6 -99 q127 142 266 142q12 0 25 -1q61 -6 111.5 -44.5t75.5 -94.5q18 -43 18 -92q0 -16 -2 -32q-8 -65 -58 -120q-68 -75 -185 -100q64 -54 197 -152q18 18 50 23q19 3 28 0q10 -2 10 -10zM578 403v9q0 66 -42 122q-48 63 -117 69h-11l-195 -147q-12 -19 -18 -25l8 -142q10 4 24 4 q15 -3 48 -8q60 -10 108 -10q40 0 72 7q119 25 123 121z" />
<glyph unicode="S" horiz-adv-x="732" d="M666 625q2 -6 -10 -28q-6 -9 -20 -35l-27 -50q-29 -52 -77 -55q-18 -1 -26.5 2.5t-7.5 11.5q3 16 14 36l28 50q0 1 2 3q-104 22 -201 22h-8q-101 -1 -157 -22q-14 -5 -18 -8q-2 -4 -2 -8q0 -18 32 -47q26 -24 54 -41q51 -32 167 -79q113 -46 166 -80q99 -65 99 -123 q0 -22 -12 -45q-57 -102 -264 -130q-72 -9 -141 -9q-23 0 -45 1q-72 3 -81 10q-12 9 -25 75l-12 62q-3 14 -3 27q0 8 1 16q3 22 43 41q21 10 34 10q10 0 15 -7q12 -17 22 -68q4 -26 16 -78q48 -6 97 -6q40 0 80 4q90 9 145 34q19 9 22 14q2 4 2 8q0 11 -10 28 q-47 65 -228 136q-220 86 -265 162q-14 23 -14 46q0 25 15 49q64 106 319 112h15l243 -30q21 -5 23 -11z" />
<glyph unicode="T" horiz-adv-x="631" d="M579 638q-7 -52 -159 -73q-82 -11 -178 -11h-16q-10 -85 -10 -160v-25q7 -286 201 -286q16 43 29 127q5 33 17.5 49t44.5 26q16 5 26 5t14 -5q6 -6 6 -21q0 -9 -2 -21q-21 -140 -57 -187q-27 -36 -51 -46q-20 -9 -67 -10h-9q-138 0 -201 94q-52 78 -57 233v29 q0 81 13 202q-33 2 -74 7q-24 3 -37 9q-6 3 -6 10q0 11 14 30q26 36 75 36q7 0 15 -1q29 -3 24 -3q10 73 10 109v6v6q0 30 10 45q10 17 42 30q20 8 31.5 8t15.5 -8q7 -16 9 -38q0 -33 -14 -143q-1 -7 -3 -28l162 -21q65 -9 74 -9h1v5q0 28 10 44q11 17 41 29q20 8 32 8 t16 -8q7 -16 8 -38v-3v-2z" />
<glyph unicode="U" horiz-adv-x="731" d="M777 113q1 -5 1 -10q0 -17 -12 -28q-9 -9 -36 -22q-47 -22 -81 -28q-6 -1 -43 -16q-28 -11 -41 -11q-21 0 -22 24q-5 168 -5 211q-57 -109 -134 -169q-83 -64 -164 -64q-96 0 -137 90q-27 60 -27 157q0 146 66 340q-23 1 -46 1q-30 2 -41 10q-7 4 -7 13q0 15 15.5 33 t31.5 26q17 8 45 8q15 0 32 -2q52 -5 108 -16q3 -6 -6 -28q-90 -216 -90 -361q0 -65 18 -113q25 -67 78 -74q5 -1 10 -1q29 0 61 25q91 71 139 235q37 125 42 275q1 42 53 63q17 6 29 6q24 0 25 -28q1 -44 3 -163l2 -135q1 -157 5 -261l20 5q27 11 84 29q2 1 5 1 q14 0 19 -22z" />
<glyph unicode="V" horiz-adv-x="685" d="M624 476q-49 -101 -120 -196q-57 -76 -75 -105q-39 -67 -39 -119q0 -42 -45 -64q-17 -8 -30 -8q-21 0 -30 23l-235 588q-10 23 -10 42q0 22 38 42q22 13 37 13q9 0 15 -6q14 -16 22 -34l189 -469q22 38 76 108q59 78 99 159q16 31 16 63q0 49 -37 97q-16 20 -20 37 q-1 2 -1 4q0 17 34 39q25 17 41 17q21 0 45 -31q48 -63 48 -125q0 -38 -18 -75z" />
<glyph unicode="W" horiz-adv-x="914" d="M853 458q-29 -95 -78 -190q-38 -72 -51 -102q-24 -61 -24 -110q0 -42 -45 -64q-17 -8 -30 -8q-21 0 -30 23l-138 329q-31 -57 -87 -174q-23 -53 -23 -106q0 -42 -45 -64q-17 -8 -30 -8q-21 0 -30 23l-235 588q-9 23 -9 42q0 22 37 42q22 13 37 13q9 0 15 -6 q15 -16 23 -34l182 -454q7 16 15 32l18 33q38 72 51 105q20 53 20 98q0 8 -1 16l-47 113q-5 11 -5 22q0 26 33 46q20 13 37 13q21 0 36 -19q47 -62 55 -128l140 -333q4 10 34 67q42 82 66 161q7 22 7 44q0 60 -48 123q-15 19 -19 36q-1 3 -1 5q0 17 33 39q25 17 41 17 q8 0 13 -3q19 -12 32 -28q58 -76 58 -148q0 -26 -7 -51z" />
<glyph unicode="X" horiz-adv-x="610" d="M566 81q5 -13 5 -24q0 -27 -26 -47q-16 -14 -31 -14q-17 0 -32 19l-192 246l-65 -98l-60 -94q46 -8 69 -8q60 -8 60 -55q0 -37 -35 -37q-6 0 -13 1q-136 20 -173 20h-3q-23 4 -23 20q0 11 10 27q63 101 188 282l-185 237q-23 30 -23 47q0 16 21.5 37.5t38.5 21.5 q7 0 12 -3q19 -13 32 -30l168 -216l60 90l56 87l-56 -3q-8 -1 -15 -1q-32 0 -32 25q0 8 3 19q9 26 28 35q13 6 45 9l117 11h7q20 0 27 -10q3 -5 3 -11q0 -11 -10 -27q-43 -70 -90 -139l-98 -144z" />
<glyph unicode="Y" horiz-adv-x="635" d="M601 678q1 -4 1 -8q0 -12 -5 -29q-26 -98 -57 -272q-35 -197 -53 -272q-25 -108 -77 -177q-66 -89 -162 -89q-83 0 -205 86q-30 21 -30 36q0 17 27 37.5t45 20.5q20 0 48 -20q104 -73 154 -73q29 0 47 25q9 13 25 52q-8 11 -12 21l-240 523l-19 -21q-22 -25 -34 -31 q-11 -6 -24 -6q-9 0 -20 3q-22 6 -22 16q0 14 22 39l84 95q20 23 52 30q8 2 15 2q17 0 24 -14l220 -478l11 58l35 192q21 110 42 191q9 33 22 48t45 22q14 3 23 3q17 0 18 -10z" />
<glyph unicode="Z" horiz-adv-x="702" d="M662 184q1 -6 1 -13q0 -11 -3 -25q-20 -93 -89 -131.5t-162 -43.5l-9 -1h-21q-124 0 -328 54q-19 5 -19 19q0 13 16 32l121 140l220 253l98 113q-101 -6 -202 -11l-201 -10h-12q-16 0 -26 2q-9 2 -8.5 11t8.5 25q17 32 40.5 38.5t43.5 7.5l467 25h3q23 0 29 -14 q1 -3 1 -6q0 -14 -16 -32l-122 -141l-121 -140l-209 -240q78 -20 152 -32q55 -10 133 -10h1h-1h1q94 3 107 63q8 34 20.5 48.5t44.5 23.5q16 4 26 4q14 0 16 -9z" />
<glyph unicode="\" horiz-adv-x="550" d="M556 -93q0 -6 -6 -9q-8 -4 -26 -4q-29 0 -46 14q-14 10 -31 38l-456 771q-11 19 -15 34v3q0 13 30 13q48 0 78 -51l457 -771q15 -25 15 -38z" />
<glyph unicode="_" horiz-adv-x="589" d="M559 -82q-91 -87 -159 -87q-50 0 -131 39q-28 14 -86 40q-7 3 -14 3q-15 0 -36 -19l-31 -30q-13 -10 -33 -10q-6 0 -14 1q-25 5 -25 16q0 3 1 5q5 14 20 33q80 97 141 97q5 0 10 -1q63 -10 128 -46q37 -20 80 -35q10 -3 21 -3q30 0 60 29q16 15 34 26q9 5 19 5 q11 0 24 -6q18 -9 18 -19q0 -12 -27 -38z" />
<glyph unicode="a" horiz-adv-x="735" d="M706 119q3 -8 3 -15q0 -13 -10 -23q-9 -9 -35 -22l-60 -31q-27 -14 -42 -14q-18 0 -22 24l-2 39q-1 20 -4 62q-97 -91 -217 -120q-53 -13 -100 -13q-75 0 -130 34l-20 15q-45 38 -45 88q0 93 137 173q129 75 341 109q-21 80 -57 136q-6 -4 -12 -6q-26 -12 -29 -15 q-18 -14 -36 -23q-6 -3 -12 -3q-12 0 -25.5 11t-13.5 21q0 4 3 9q24 30 65 51l36 18q28 13 29 15q17 14 43 18q6 1 11 1q16 0 23 -7q63 -84 89 -213q14 -2 14 -15q0 -9 -6 -21v-1h-1q23 -156 23 -276q19 9 37 14q3 1 5 1q14 0 20 -21zM528 246q-6 59 -13 103 q-217 -29 -325 -93q-62 -38 -62 -74q0 -9 4 -18q6 -18 27 -37q8 -7 16 -11q40 -25 93 -25q79 0 153 44q43 26 74 65z" />
<glyph unicode="b" horiz-adv-x="681" d="M646 301q1 -99 -78 -178q-67 -68 -170 -103q-62 -21 -138 -21q-66 0 -144 16q-11 -1 -16 5.5t-3 15.5v9q0 86 -17 236q-19 158 -19 228q0 25 2 49l-53 -15q-22 -6 -39 -6q-13 -1 -13 16q0 5 2 13q8 40 63 56l103 30q13 4 22 4q24 0 24 -22q0 -2 -0.5 -11.5t-1.5 -25 t-1 -34.5q48 50 111 75q46 17 90 17q22 0 44 -4q51 -10 80 -44l4 -5q16 -22 16 -47q0 -45 -44 -98q76 -2 123 -40q51 -41 53 -116zM539 259q-2 52 -38 84q-34 29 -87 29q-42 0 -145 -40q-6 -2 -10 -2q-15 0 -18 27q-1 5 -1 9q0 27 22 37l50 22q79 38 92 74q2 6 2 13 q0 14 -11 28l-3 4q-14 17 -46 24q-13 3 -25 3q-50 0 -87 -43q-34 -38 -62 -38h-1q2 -54 18 -198q15 -125 15 -198q58 -11 105 -11q128 0 191 71q40 46 39 105z" />
<glyph unicode="c" horiz-adv-x="654" d="M626 233q-6 -14 -20 -33q-130 -166 -242 -187q-28 -5 -55 -5q-100 0 -174 76q-64 67 -89 172q-14 54 -14 111v14q5 198 181 270q40 17 91 17q91 0 213 -52q19 -8 32 -21q3 -3 3 -8q0 -13 -21 -34q-28 -27 -49 -27h-4q-21 2 -42 11q-99 42 -161 42q-91 0 -118 -66 q-18 -44 -19 -97v-11q0 -104 55 -199q62 -108 153 -108q87 0 175 114q32 42 69 42q5 0 10 -1q27 -4 27 -16q0 -2 -1 -4z" />
<glyph unicode="d" horiz-adv-x="680" d="M634 354q23 -68 23 -122q0 -66 -34 -112q-49 -66 -137 -100q-78 -31 -168 -31q-184 0 -253 100q-26 37 -26 85q0 46 23 103q48 117 267 275q-87 74 -161 130q-10 7 -10 17q0 9 9 22q18 25 51 36l131 43q21 7 38 8q8 0 11.5 -7t2.5 -21q-3 -26 -20 -39q-11 -8 -41 -18 l-27 -9q269 -212 321 -360zM547 276q-27 92 -168 230q-172 -124 -212 -212q-20 -46 -20 -82q0 -83 102 -119q57 -20 120 -20q125 0 167 57q22 31 22 76q0 31 -11 70z" />
<glyph unicode="e" horiz-adv-x="712" d="M672 233q-6 -16 -19 -33q-129 -166 -242 -187q-29 -5 -55 -5q-101 0 -173 76q-62 66 -90 172q-8 33 -13 68q-6 0 -46 5q-23 3 -36 10q-6 2 -6 9q0 11 14 30q28 36 70 36h5q4 45 21 85q45 106 157 152q41 17 92 17q90 0 212 -52q36 -15 36 -29q0 -12 -22 -34 q-27 -27 -48 -27h-4q-21 2 -43 11q-98 42 -161 42q-37 0 -69 -16q-35 -18 -49 -50q-18 -44 -18 -100v-11q257 -33 310 -33q11 0 13 1v5q0 28 10 44q11 17 41 29q20 8 32 8t16 -8q7 -16 8 -38v-2v-4q-7 -50 -135 -71q-101 -17 -217 -17q-33 0 -67 1q2 -5 2 -8 q31 -119 109 -181q38 -30 87 -30q88 0 174 114q20 25 33 34q13 8 32 8q7 0 14 -1q26 -3 26 -15q0 -2 -1 -5z" />
<glyph unicode="f" horiz-adv-x="534" d="M489 241q0 -5 -1 -7q-7 -44 -97 -65q-56 -14 -128 -16q22 -131 23 -215v-5q0 -30 -10 -46q-11 -18 -42 -31q-18 -6 -29 -6q-10 0 -15 4q-10 8 -11 42q-1 105 -32 259q-32 1 -76 8q-22 4 -35 11q-5 3 -5 9q0 11 15 31q27 35 65 35q8 0 16 -1q-8 38 -19 82q-27 113 -44 214 q-6 39 -6 72q0 87 47.5 140.5t131.5 53.5q65 0 156 -31q51 -17 64.5 -34.5t15.5 -71.5l4 -82v-11q0 -26 -8 -40q-10 -17 -42 -30q-21 -8 -33 -8q-11 0 -15 7q-8 16 -9 38l-3 67l-4 66q-118 47 -163 47q-23 0 -27 -10q-9 -24 -9 -60q0 -33 7 -75q13 -74 78 -355l91 -19 q34 -7 41 -7h1v5q0 28 10 44q12 17 42 29q20 8 31.5 8t15.5 -8q7 -16 8 -38z" />
<glyph unicode="g" horiz-adv-x="713" d="M676 103v-10q0 -80 -58 -181q-30 -52 -77 -53h-7q-13 0 -20 3q-8 4 -6 12q3 15 14 35q46 82 46 168q0 26 -3 52q-17 -22 -31 -35q-97 -91 -223 -91q-75 0 -139 52q-56 46 -90 121q-41 91 -41 186q0 14 1 28q8 129 101 204q77 63 188 63q86 0 196 -47q19 -8 32 -21 q3 -3 3 -8q0 -13 -21 -34q-27 -27 -49 -27h-4q-20 2 -42 11q-97 41 -158 43h-7q-67 0 -98 -36q-29 -35 -34 -111q-1 -13 -1 -27q0 -83 38 -165q68 -147 171 -147q69 0 110 39q57 55 57 170q0 23 -2 47v6q0 39 47 60q19 8 32 8q23 0 28 -27l32 -156q12 -65 15 -132z" />
<glyph unicode="h" horiz-adv-x="639" d="M607 64q6 -3 6 -10q0 -10 -13 -28q-26 -37 -75 -37q-7 0 -15 1q-27 2 -80 7l-8 1q-13 2 -28 6q-3 2 6 26q71 195 71 336q0 176 -83 186h-4q-19 0 -39 -18q-78 -71 -116 -228q-29 -117 -31 -259q-1 -42 -53 -63q-18 -6 -29 -6q-24 0 -25 28l-12 558q-2 86 -3 173 q-9 -3 -8 -3q-22 -11 -69 -29q-4 -1 -7 -1q-13 0 -22 19q-3 6 -3 13q0 23 41 47q32 19 73 30q20 6 33 13q22 12 40 12h7q21 -4 21 -22l3 -185q2 -92 5 -184q39 76 98 128q71 63 144 63q82 0 120 -81q25 -53 25 -144q0 -150 -87 -332q30 -3 60 -5q40 -4 57 -12z" />
<glyph unicode="i" horiz-adv-x="313" d="M224 79q0 -34 -11 -51t-43 -29q-20 -7 -31 -7q-12 0 -15 7q-7 16 -7 38l-4 531l-69 -12q-11 -2 -22 -2q-8 0 -15 1q-10 1 -10 12q0 8 5 21q10 27 29 38q13 8 45 13l106 18q13 2 21 2q6 0 10 -1q6 -3 6 -22z" />
<glyph unicode="j" horiz-adv-x="315" d="M243 469q1 -29 1 -56q0 -174 -23 -255q-39 -137 -188 -309q-20 -23 -33 -31q-12 -7 -28 -7q-7 0 -16 2q-24 5 -24 17q0 11 22 37q129 151 162 275q17 60 20 141v51v93v77v43v46l-92 -12q-11 -1 -20.5 -1t-17.5 1q-9 2 -9 11t7 24q19 42 78 49q63 7 127 16q12 1 19 1 t10 -1q5 -3 5 -17v-5q0 -49 -0.5 -96.5t0.5 -93.5z" />
<glyph unicode="k" horiz-adv-x="643" d="M648 82q3 -9 3 -16q0 -21 -43 -44l-70 -37q-17 -9 -37 -10q-18 0 -25 9l-204 280l-12 -14q-49 -94 -58 -204q-3 -42 -54 -62q-17 -6 -29 -6q-24 0 -24 28v1v1v1l-12 555q-2 86 -3 173q-9 -3 -8 -3q-22 -11 -69 -29q-4 -1 -7 -1q-13 0 -22 19q-3 6 -3 13q0 23 41 47 q32 19 73 30q20 6 33 13q22 12 40 12h7q21 -4 21 -22l3 -192l8 -320q44 66 132 157q80 82 80 116q0 11 -6 31t-6 33q0 21 40 42q24 13 37 13q10 0 15 -6q28 -32 28 -78q0 -36 -22 -67q-26 -37 -75 -89q-62 -67 -78 -86l216 -299l26 14q22 12 37 16q3 1 6 1q14 0 21 -20z" />
<glyph unicode="l" horiz-adv-x="533" d="M485 111q0 -86 -97 -96h-6q-22 0 -64 12q-29 9 -72 14h-8q-30 0 -55 -25q-33 -35 -63 -40q-6 -1 -12 -1q-24 0 -24 23l-14 749l-65 -14q-20 -5 -31 -5q-4 0 -7 1q-11 1 -11 13q0 8 4 19q13 41 70 53l106 23q9 2 16 2q25 0 25 -22l12 -710q44 24 87 24q6 0 12 -1 q48 -5 88 -16q0 34 49 55q21 9 33 9q11 0 15 -7q12 -24 12 -60z" />
<glyph unicode="m" horiz-adv-x="957" d="M932 80v-6q0 -32 -50 -54l-86 -37q-25 -11 -39 -11q-20 0 -20 21q0 4 1 9q27 166 27 285q0 180 -47 258q-26 43 -53 45q-5 0 -19 -16q-78 -94 -95 -316q1 -35 1 -69q0 -56 -3 -108q-3 -43 -54 -62q-16 -7 -28 -7q-23 0 -25 28q-2 38 -2 74q0 50 4 98q-10 234 -84 329 q-30 38 -57 38q-3 0 -14 -14q-82 -107 -82 -372q0 -24 1 -49q0 -13 2 -41q0 -13 0.5 -32.5t0.5 -20.5q0 -36 -50 -55q-18 -7 -30 -7q-20 0 -26 25q-1 5 -3 42q-5 127 -16 382q-3 63 -6 138q-4 -2 -12 -4q-23 -6 -36 -13q-18 -12 -36 -17q-3 -1 -6 -1q-14 0 -22 20 q-3 8 -3 15q0 12 9 22q8 8 34 23q30 17 93 36q7 2 18 8q23 12 39 12h7q19 -4 20 -22q1 -32 5 -97q5 6 13 19q65 85 149 88h5q99 0 155 -161q23 51 52 87q69 85 152 85h2q124 -2 150 -260q4 -40 4 -87q0 -106 -20 -246l21 9q22 9 38 12h4q14 0 17 -23z" />
<glyph unicode="n" horiz-adv-x="722" d="M691 77q2 -3 2 -7q0 -10 -12 -27q-28 -39 -52 -39q-3 0 -6 1q-91 8 -125 8h-11q-25 2 -28 7t7 29q83 195 83 333q0 66 -19 114q-25 65 -79 72q-5 1 -11 1l-61 -24q-89 -68 -134 -220q-34 -116 -37 -259q-1 -46 -54 -66q-17 -6 -29 -6q-23 0 -24 28l-4 163l-3 251 q-1 60 -3 145q-23 -5 -67 -21q-22 -11 -36 -14q-2 -1 -5 -1q-14 0 -19 23q-1 4 -1 8q0 28 47 52q30 15 103 34q10 3 23 9q25 12 40 12q21 0 21 -24q1 -42 3 -119l2 -101q47 87 117 145q84 70 170 70q91 0 134 -76q33 -60 33 -157q0 -138 -76 -326l60 -4q46 -4 51 -14z" />
<glyph unicode="o" horiz-adv-x="744" d="M715 296q-25 -129 -147 -214q-121 -84 -264 -84h-10q-154 3 -223 90q-43 55 -45 140v6q0 183 172 350q92 89 213 126q20 6 38 7h2q7 0 11 -7q3 -7 0 -22q-4 -23 -20 -36q54 -22 111.5 -62t91.5 -81l7 -9q67 -84 67 -166q0 -19 -4 -38zM609 266q3 13 3 27q0 65 -58 140 l-4 5q-36 44 -91.5 82t-106.5 56q-28 10 -34 18q-102 -65 -156 -188q-30 -69 -30 -132q0 -95 64 -145q56 -44 152 -47h11q88 0 155 44q77 51 95 140z" />
<glyph unicode="p" horiz-adv-x="691" d="M652 374v-7q0 -188 -157 -284q-59 -35 -143 -35q-66 0 -147 21l6 -202q2 -60 -52 -81q-18 -7 -30 -7q-8 0 -13 4q-11 8 -12 41l-23 750l-65 -15q-15 -4 -28 -4q-5 0 -10 1q-12 1 -12 14q0 7 4 18q13 41 70 53l106 23q9 2 16 2q24 0 25 -22l4 -125q84 120 167 147 q37 11 71 11q94 0 155 -86q66 -93 68 -217zM546 335q-2 54 -17 102q-33 107 -103 143q-13 7 -29 7q-89 0 -180 -180q-13 -26 -22 -35l6 -199q10 -1 28 -7q87 -29 147 -29q37 0 64 11q72 28 92 88q14 41 14 92v7z" />
<glyph unicode="q" horiz-adv-x="681" d="M725 -150q-13 -41 -71 -53l-106 -22q-10 -2 -17 -2q-23 0 -23 21l-8 365q-83 -108 -161 -130q-32 -10 -62 -10q-77 0 -134 57q-50 50 -73 129q-16 54 -18 117v12q0 55 17 105q35 108 137 172q59 37 146 37q62 0 138 -19q0 47 53 68q17 7 28 7q9 0 14 -5q11 -8 12 -41 l17 -793l66 14q16 4 28 4q5 0 9 -1q11 -1 11 -14q0 -7 -3 -18zM497 308l-5 217q-6 1 -17 5q-88 29 -148 29q-37 0 -64 -11q-105 -41 -105 -178v-10q1 -49 18 -101q33 -108 102 -143q14 -7 29 -7q29 0 63 23q54 35 117 158q6 13 10 18z" />
<glyph unicode="r" horiz-adv-x="755" d="M724 65q-1 -18 -9 -38q-30 -74 -90 -74q-45 0 -103 42l-184 143q-65 46 -130 64l11 -182v-8q0 -52 -50 -72q-20 -8 -32 -8q-13 0 -16 8q-8 15 -9 38l-35 596l-65 -15q-15 -4 -28 -4q-5 0 -10 1q-12 1 -12 14q0 7 4 18q13 41 70 53l106 23q9 2 16 2q23 0 24 -21l6 -99 q127 142 266 142q12 0 25 -1q61 -6 111.5 -44.5t75.5 -94.5q18 -43 18 -92q0 -16 -2 -32q-8 -65 -58 -120q-68 -75 -185 -100q64 -54 197 -152q18 18 50 23q19 3 28 0q10 -2 10 -10zM578 403v9q0 66 -42 122q-48 63 -117 69h-11l-195 -147q-12 -19 -18 -25l8 -142q10 4 24 4 q15 -3 48 -8q60 -10 108 -10q40 0 72 7q119 25 123 121z" />
<glyph unicode="s" horiz-adv-x="732" d="M666 625q2 -6 -10 -28q-6 -9 -20 -35l-27 -50q-29 -52 -77 -55q-18 -1 -26.5 2.5t-7.5 11.5q3 16 14 36l28 50q0 1 2 3q-104 22 -201 22h-8q-101 -1 -157 -22q-14 -5 -18 -8q-2 -4 -2 -8q0 -18 32 -47q26 -24 54 -41q51 -32 167 -79q113 -46 166 -80q99 -65 99 -123 q0 -22 -12 -45q-57 -102 -264 -130q-72 -9 -141 -9q-23 0 -45 1q-72 3 -81 10q-12 9 -25 75l-12 62q-3 14 -3 27q0 8 1 16q3 22 43 41q21 10 34 10q10 0 15 -7q12 -17 22 -68q4 -26 16 -78q48 -6 97 -6q40 0 80 4q90 9 145 34q19 9 22 14q2 4 2 8q0 11 -10 28 q-47 65 -228 136q-220 86 -265 162q-14 23 -14 46q0 25 15 49q64 106 319 112h15l243 -30q21 -5 23 -11z" />
<glyph unicode="t" horiz-adv-x="631" d="M579 638q-7 -52 -159 -73q-82 -11 -178 -11h-16q-10 -85 -10 -160v-25q7 -286 201 -286q16 43 29 127q5 33 17.5 49t44.5 26q16 5 26 5t14 -5q6 -6 6 -21q0 -9 -2 -21q-21 -140 -57 -187q-27 -36 -51 -46q-20 -9 -67 -10h-9q-138 0 -201 94q-52 78 -57 233v29 q0 81 13 202q-33 2 -74 7q-24 3 -37 9q-6 3 -6 10q0 11 14 30q26 36 75 36q7 0 15 -1q29 -3 24 -3q10 73 10 109v6v6q0 30 10 45q10 17 42 30q20 8 31.5 8t15.5 -8q7 -16 9 -38q0 -33 -14 -143q-1 -7 -3 -28l162 -21q65 -9 74 -9h1v5q0 28 10 44q11 17 41 29q20 8 32 8 t16 -8q7 -16 8 -38v-3v-2z" />
<glyph unicode="u" horiz-adv-x="731" d="M777 113q1 -5 1 -10q0 -17 -12 -28q-9 -9 -36 -22q-47 -22 -81 -28q-6 -1 -43 -16q-28 -11 -41 -11q-21 0 -22 24q-5 168 -5 211q-57 -109 -134 -169q-83 -64 -164 -64q-96 0 -137 90q-27 60 -27 157q0 146 66 340q-23 1 -46 1q-30 2 -41 10q-7 4 -7 13q0 15 15.5 33 t31.5 26q17 8 45 8q15 0 32 -2q52 -5 108 -16q3 -6 -6 -28q-90 -216 -90 -361q0 -65 18 -113q25 -67 78 -74q5 -1 10 -1q29 0 61 25q91 71 139 235q37 125 42 275q1 42 53 63q17 6 29 6q24 0 25 -28q1 -44 3 -163l2 -135q1 -157 5 -261l20 5q27 11 84 29q2 1 5 1 q14 0 19 -22z" />
<glyph unicode="v" horiz-adv-x="685" d="M624 476q-49 -101 -120 -196q-57 -76 -75 -105q-39 -67 -39 -119q0 -42 -45 -64q-17 -8 -30 -8q-21 0 -30 23l-235 588q-10 23 -10 42q0 22 38 42q22 13 37 13q9 0 15 -6q14 -16 22 -34l189 -469q22 38 76 108q59 78 99 159q16 31 16 63q0 49 -37 97q-16 20 -20 37 q-1 2 -1 4q0 17 34 39q25 17 41 17q21 0 45 -31q48 -63 48 -125q0 -38 -18 -75z" />
<glyph unicode="w" horiz-adv-x="924" d="M860 458q-29 -95 -78 -190q-38 -72 -51 -102q-24 -61 -24 -110q0 -42 -45 -64q-17 -8 -30 -8q-21 0 -30 23l-138 329q-31 -57 -87 -174q-23 -53 -23 -106q0 -42 -45 -64q-17 -8 -30 -8q-21 0 -30 23l-235 588q-9 23 -9 42q0 22 37 42q22 13 37 13q9 0 15 -6 q15 -16 23 -34l182 -454q7 16 15 32l18 33q38 72 51 105q20 53 20 98q0 8 -1 16l-47 113q-5 11 -5 22q0 26 33 46q20 13 37 13q21 0 36 -19q47 -62 55 -128l140 -333q4 10 34 67q42 82 66 161q7 22 7 44q0 60 -48 123q-15 19 -19 36q-1 3 -1 5q0 17 33 39q25 17 41 17 q8 0 13 -3q19 -12 32 -28q58 -76 58 -148q0 -26 -7 -51z" />
<glyph unicode="x" horiz-adv-x="610" d="M566 81q5 -13 5 -24q0 -27 -26 -47q-16 -14 -31 -14q-17 0 -32 19l-192 246l-65 -98l-60 -94q46 -8 69 -8q60 -8 60 -55q0 -37 -35 -37q-6 0 -13 1q-136 20 -173 20h-3q-23 4 -23 20q0 11 10 27q63 101 188 282l-185 237q-23 30 -23 47q0 16 21.5 37.5t38.5 21.5 q7 0 12 -3q19 -13 32 -30l168 -216l60 90l56 87l-56 -3q-8 -1 -15 -1q-32 0 -32 25q0 8 3 19q9 26 28 35q13 6 45 9l117 11h7q20 0 27 -10q3 -5 3 -11q0 -11 -10 -27q-43 -70 -90 -139l-98 -144z" />
<glyph unicode="y" horiz-adv-x="635" d="M601 678q1 -4 1 -8q0 -12 -5 -29q-26 -98 -57 -272q-35 -197 -53 -272q-25 -108 -77 -177q-66 -89 -162 -89q-83 0 -205 86q-30 21 -30 36q0 17 27 37.5t45 20.5q20 0 48 -20q104 -73 154 -73q29 0 47 25q9 13 25 52q-8 11 -12 21l-240 523l-19 -21q-22 -25 -34 -31 q-11 -6 -24 -6q-9 0 -20 3q-22 6 -22 16q0 14 22 39l84 95q20 23 52 30q8 2 15 2q17 0 24 -14l220 -478l11 58l35 192q21 110 42 191q9 33 22 48t45 22q14 3 23 3q17 0 18 -10z" />
<glyph unicode="z" horiz-adv-x="702" d="M662 184q1 -6 1 -13q0 -11 -3 -25q-20 -93 -89 -131.5t-162 -43.5l-9 -1h-21q-124 0 -328 54q-19 5 -19 19q0 13 16 32l121 140l220 253l98 113q-101 -6 -202 -11l-201 -10h-12q-16 0 -26 2q-9 2 -8.5 11t8.5 25q17 32 40.5 38.5t43.5 7.5l467 25h3q23 0 29 -14 q1 -3 1 -6q0 -14 -16 -32l-122 -141l-121 -140l-209 -240q78 -20 152 -32q55 -10 133 -10h1h-1h1q94 3 107 63q8 34 20.5 48.5t44.5 23.5q16 4 26 4q14 0 16 -9z" />
<glyph unicode="&#xa0;" />
<glyph unicode="&#xaa;" horiz-adv-x="735" d="M706 119q3 -8 3 -15q0 -13 -10 -23q-9 -9 -35 -22l-60 -31q-27 -14 -42 -14q-18 0 -22 24l-2 39q-1 20 -4 62q-97 -91 -217 -120q-53 -13 -100 -13q-75 0 -130 34l-20 15q-45 38 -45 88q0 93 137 173q129 75 341 109q-21 80 -57 136q-6 -4 -12 -6q-26 -12 -29 -15 q-18 -14 -36 -23q-6 -3 -12 -3q-12 0 -25.5 11t-13.5 21q0 4 3 9q24 30 65 51l36 18q28 13 29 15q17 14 43 18q6 1 11 1q16 0 23 -7q63 -84 89 -213q14 -2 14 -15q0 -9 -6 -21v-1h-1q23 -156 23 -276q19 9 37 14q3 1 5 1q14 0 20 -21zM528 246q-6 59 -13 103 q-217 -29 -325 -93q-62 -38 -62 -74q0 -9 4 -18q6 -18 27 -37q8 -7 16 -11q40 -25 93 -25q79 0 153 44q43 26 74 65z" />
<glyph unicode="&#xad;" horiz-adv-x="586" d="M552 320q-92 -88 -160 -88q-62 0 -155 52q-54 31 -76 31q-15 0 -35 -19q-15 -16 -31 -30q-11 -10 -30 -10q-8 0 -17 2q-25 4 -25 17q0 2 1 4q5 15 20 33q79 96 140 96q5 0 11 -1q64 -10 128 -46q40 -22 80 -35q10 -3 20 -3q30 0 61 29q16 15 34 26q9 5 19 5q11 0 24 -6 q18 -9 18 -19q0 -12 -27 -38z" />
<glyph unicode="&#xb2;" horiz-adv-x="722" d="M692 188q1 -8 1 -16q0 -11 -2 -22q-37 -162 -261 -171h-22q-127 0 -326 52q-21 6 -21 19q0 14 20 35q64 68 263 231l36 30q53 42 69 57q38 35 61 66q30 40 30 65q0 42 -62 53q-22 4 -48 4q-22 0 -46 -3q-64 -9 -118 -35q-69 -35 -82 -85q-8 -32 -21.5 -47.5t-46.5 -23.5 q-14 -4 -24 -4q-16 0 -17 11q-1 4 -1 8q0 13 5 30q24 94 136 159q92 54 205 70q38 5 69 5q50 0 88 -13q70 -25 70 -87v-5q-4 -92 -172 -235l-276 -234q164 -39 261 -39h18q94 4 107 59q8 33 21 48.5t45 23.5q15 4 25 4q15 0 16 -10z" />
<glyph unicode="&#xb3;" horiz-adv-x="673" d="M654 306q0 -98 -97 -176q-77 -62 -190 -96q-75 -23 -171 -23q-79 0 -173 16q-23 4 -35 12q-5 3 -5 9q0 11 15 31q24 30 47 32q10 1 19 1q14 0 25 -2q91 -16 162 -16q72 0 137 19q78 23 118.5 64.5t40.5 91.5q0 55 -48 86q-39 25 -99 29q-8 1 -17 1q-55 0 -130 -23 q-52 -22 -65 -22q-16 0 -16 27v3q2 34 32 49l59 20q100 37 117 72q4 7 4 15q0 15 -17 29q-19 15 -47 22q-20 5 -43 5q-22 0 -46 -4q-49 -9 -88 -45q-15 -15 -34 -25q-8 -5 -18 -5q-11 0 -24 6q-19 9 -19 19q0 11 29 38q75 70 162 90q49 10 90 10q102 0 145 -54 q17 -21 17 -46q0 -48 -51 -97q87 0 144 -36q70 -43 70 -127z" />
<glyph unicode="&#xb9;" horiz-adv-x="499" d="M485 51q-18 -42 -78 -49l-90 -10q-15 -2 -22 -2q-5 0 -7 1q-6 3 -6 21l1 567l-241 -82q-24 -8 -37 -9q-9 -1 -13 6q-2 5 -2 16v6q2 25 19 38q11 9 40 19l291 100q16 5 27 5q23 0 23 -23l-1 -576l55 7q13 2 22 2q11 0 17 -3q8 -4 8 -13t-6 -21z" />
<glyph unicode="&#xba;" horiz-adv-x="744" d="M715 296q-25 -129 -147 -214q-121 -84 -264 -84h-10q-154 3 -223 90q-43 55 -45 140v6q0 183 172 350q92 89 213 126q20 6 38 7h2q7 0 11 -7q3 -7 0 -22q-4 -23 -20 -36q54 -22 111.5 -62t91.5 -81l7 -9q67 -84 67 -166q0 -19 -4 -38zM609 266q3 13 3 27q0 65 -58 140 l-4 5q-36 44 -91.5 82t-106.5 56q-28 10 -34 18q-102 -65 -156 -188q-30 -69 -30 -132q0 -95 64 -145q56 -44 152 -47h11q88 0 155 44q77 51 95 140z" />
<glyph unicode="&#xd2;" />
<glyph unicode="&#xd3;" />
<glyph unicode="&#xd4;" />
<glyph unicode="&#xd5;" />
<glyph unicode="&#x152;" horiz-adv-x="1456" d="M1416 233q-6 -16 -19 -33q-129 -166 -242 -187q-29 -5 -55 -5q-101 0 -173 76q-62 66 -90 172q-8 33 -13 68q-6 0 -46 5q-23 3 -36 10q-6 2 -6 9q0 11 14 30q28 36 70 36h5q4 45 21 85q45 106 157 152q41 17 92 17q90 0 212 -52q36 -15 36 -29q0 -12 -22 -34 q-27 -27 -48 -27h-4q-21 2 -43 11q-98 42 -161 42q-37 0 -69 -16q-35 -18 -49 -50q-18 -44 -18 -100v-11q257 -33 310 -33q11 0 13 1v5q0 28 10 44q11 17 41 29q20 8 32 8t16 -8q7 -16 8 -38v-2v-4q-7 -50 -135 -71q-101 -17 -217 -17q-33 0 -67 1q2 -5 2 -8 q31 -119 109 -181q38 -30 87 -30q88 0 174 114q20 25 33 34q13 8 32 8q7 0 14 -1q26 -3 26 -15q0 -2 -1 -5zM715 296q-25 -129 -147 -214q-121 -84 -264 -84h-10q-154 3 -223 90q-43 55 -45 140v6q0 183 172 350q92 89 213 126q20 6 38 7h2q7 0 11 -7q3 -7 0 -22 q-4 -23 -20 -36q54 -22 111.5 -62t91.5 -81l7 -9q67 -84 67 -166q0 -19 -4 -38zM609 266q3 13 3 27q0 65 -58 140l-4 5q-36 44 -91.5 82t-106.5 56q-28 10 -34 18q-102 -65 -156 -188q-30 -69 -30 -132q0 -95 64 -145q56 -44 152 -47h11q88 0 155 44q77 51 95 140z" />
<glyph unicode="&#x153;" horiz-adv-x="1456" d="M1416 233q-6 -16 -19 -33q-129 -166 -242 -187q-29 -5 -55 -5q-101 0 -173 76q-62 66 -90 172q-8 33 -13 68q-6 0 -46 5q-23 3 -36 10q-6 2 -6 9q0 11 14 30q28 36 70 36h5q4 45 21 85q45 106 157 152q41 17 92 17q90 0 212 -52q36 -15 36 -29q0 -12 -22 -34 q-27 -27 -48 -27h-4q-21 2 -43 11q-98 42 -161 42q-37 0 -69 -16q-35 -18 -49 -50q-18 -44 -18 -100v-11q257 -33 310 -33q11 0 13 1v5q0 28 10 44q11 17 41 29q20 8 32 8t16 -8q7 -16 8 -38v-2v-4q-7 -50 -135 -71q-101 -17 -217 -17q-33 0 -67 1q2 -5 2 -8 q31 -119 109 -181q38 -30 87 -30q88 0 174 114q20 25 33 34q13 8 32 8q7 0 14 -1q26 -3 26 -15q0 -2 -1 -5zM715 296q-25 -129 -147 -214q-121 -84 -264 -84h-10q-154 3 -223 90q-43 55 -45 140v6q0 183 172 350q92 89 213 126q20 6 38 7h2q7 0 11 -7q3 -7 0 -22 q-4 -23 -20 -36q54 -22 111.5 -62t91.5 -81l7 -9q67 -84 67 -166q0 -19 -4 -38zM609 266q3 13 3 27q0 65 -58 140l-4 5q-36 44 -91.5 82t-106.5 56q-28 10 -34 18q-102 -65 -156 -188q-30 -69 -30 -132q0 -95 64 -145q56 -44 152 -47h11q88 0 155 44q77 51 95 140z" />
<glyph unicode="&#x2000;" horiz-adv-x="429" />
<glyph unicode="&#x2001;" horiz-adv-x="858" />
<glyph unicode="&#x2002;" horiz-adv-x="429" />
<glyph unicode="&#x2003;" horiz-adv-x="858" />
<glyph unicode="&#x2004;" horiz-adv-x="286" />
<glyph unicode="&#x2005;" horiz-adv-x="214" />
<glyph unicode="&#x2006;" horiz-adv-x="143" />
<glyph unicode="&#x2007;" horiz-adv-x="143" />
<glyph unicode="&#x2008;" horiz-adv-x="107" />
<glyph unicode="&#x2009;" horiz-adv-x="171" />
<glyph unicode="&#x200a;" horiz-adv-x="47" />
<glyph unicode="&#x2010;" horiz-adv-x="586" d="M552 320q-92 -88 -160 -88q-62 0 -155 52q-54 31 -76 31q-15 0 -35 -19q-15 -16 -31 -30q-11 -10 -30 -10q-8 0 -17 2q-25 4 -25 17q0 2 1 4q5 15 20 33q79 96 140 96q5 0 11 -1q64 -10 128 -46q40 -22 80 -35q10 -3 20 -3q30 0 61 29q16 15 34 26q9 5 19 5q11 0 24 -6 q18 -9 18 -19q0 -12 -27 -38z" />
<glyph unicode="&#x2011;" horiz-adv-x="586" d="M552 320q-92 -88 -160 -88q-62 0 -155 52q-54 31 -76 31q-15 0 -35 -19q-15 -16 -31 -30q-11 -10 -30 -10q-8 0 -17 2q-25 4 -25 17q0 2 1 4q5 15 20 33q79 96 140 96q5 0 11 -1q64 -10 128 -46q40 -22 80 -35q10 -3 20 -3q30 0 61 29q16 15 34 26q9 5 19 5q11 0 24 -6 q18 -9 18 -19q0 -12 -27 -38z" />
<glyph unicode="&#x2013;" horiz-adv-x="512" d="M102 256v102h308v-102h-308z" />
<glyph unicode="&#x2014;" horiz-adv-x="1024" d="M102 256v102h820v-102h-820z" />
<glyph unicode="&#x2018;" horiz-adv-x="329" d="M270 508q0 -14 -25 -35q-29 -24 -48 -24q-4 0 -7 1q-24 6 -40 18q-12 6 -23 18q-56 46 -56 121v10q5 112 90 175q11 8 27 8q9 0 20 -3q23 -6 23 -17q0 -12 -23 -37q-8 -14 -22 -43q-7 -17 -8 -44v-8q0 -55 42 -91q6 -5 20 -14q30 -19 30 -35z" />
<glyph unicode="&#x2019;" horiz-adv-x="360" d="M277 633q-3 -65 -40 -121q-12 -19 -18 -25q-20 -24 -34 -31q-12 -7 -26 -7q-9 0 -19 3q-24 6 -24 17t24 38q9 14 22 42q7 20 8 45v7q0 53 -42 91q-18 12 -49 42q-2 3 -2 7q0 14 26 36q28 23 47 23q4 0 7 -1q35 -8 64 -35q56 -51 56 -121v-10z" />
<glyph unicode="&#x201c;" horiz-adv-x="536" d="M480 508q0 -14 -25 -35q-28 -24 -47 -24q-4 0 -7 1q-23 5 -40 18q-13 6 -24 18q-56 48 -56 121v10q3 65 40 121q10 16 19 24q29 37 63 37q7 0 15 -2q24 -6 24 -17t-24 -37q-8 -14 -22 -43q-7 -17 -8 -44v-7q0 -56 43 -92q10 -8 19 -14q30 -19 30 -35zM259 452 q0 -14 -25 -35q-28 -23 -47 -23q-4 0 -8 1q-22 5 -40 17q-7 3 -24 18q-56 49 -56 123v8q3 59 44 127q15 23 47 48q12 8 28 8q9 0 19 -2q23 -6 23 -17q0 -10 -23 -38q0 -1 -6 -7q-23 -36 -25 -80v-7q0 -57 43 -91q6 -8 19 -15q31 -21 31 -35z" />
<glyph unicode="&#x201d;" horiz-adv-x="562" d="M492 626q-3 -83 -59 -145q-21 -24 -34 -31q-12 -7 -26 -7q-9 0 -19 3q-24 6 -24 16t24 39q1 1 5 7q24 35 26 80v7q0 53 -43 91q-18 12 -48 42q-2 3 -2 7q0 14 25 36q27 23 48 23q3 0 7 -1q34 -8 64 -35q56 -50 56 -122v-10zM270 571q-1 -36 -17 -77q-18 -45 -42 -68 q-29 -37 -62 -37q-8 0 -16 2q-24 6 -24 16q0 11 24 38q8 13 22 43q8 21 8 49q0 56 -43 94l-19 14q-31 23 -31 34q0 14 26 36q29 24 48 24q3 0 6 -1q35 -10 66.5 -38t42.5 -61q11 -31 11 -59v-9z" />
<glyph unicode="&#x2026;" horiz-adv-x="891" d="M818 80q0 -16 -28.5 -35.5t-45.5 -19.5q-19 0 -46 26l-61 60q-24 24 -24 39q0 17 27.5 37t45.5 20q20 0 46 -26l61 -61q25 -25 25 -40zM543 46q0 -16 -28.5 -36t-45.5 -20q-19 0 -45 27l-61 60q-24 23 -25 38q0 17 29 38q26 20 45 20t46 -26l61 -61q24 -25 24 -40z M269 11q0 -16 -28.5 -35.5t-45.5 -19.5q-19 0 -46 26l-61 60q-24 24 -24 39q0 17 27.5 37t45.5 20q20 0 46 -26l61 -61q25 -25 25 -40z" />
<glyph unicode="&#x202f;" horiz-adv-x="171" />
<glyph unicode="&#x205f;" horiz-adv-x="214" />
<glyph unicode="&#x2122;" horiz-adv-x="1588" d="M1563 80v-6q0 -32 -50 -54l-86 -37q-25 -11 -39 -11q-20 0 -20 21q0 4 1 9q27 166 27 285q0 180 -47 258q-26 43 -53 45q-5 0 -19 -16q-78 -94 -95 -316q1 -35 1 -69q0 -56 -3 -108q-3 -43 -54 -62q-16 -7 -28 -7q-23 0 -25 28q-2 38 -2 74q0 50 4 98q-10 234 -84 329 q-30 38 -57 38q-3 0 -14 -14q-82 -107 -82 -372q0 -24 1 -49q0 -13 2 -41q0 -13 0.5 -32.5t0.5 -20.5q0 -36 -50 -55q-18 -7 -30 -7q-20 0 -26 25q-1 5 -3 42q-5 127 -16 382q-3 63 -6 138q-4 -2 -12 -4q-23 -6 -36 -13q-18 -12 -36 -17q-3 -1 -6 -1q-14 0 -22 20 q-3 7 -3 14q0 13 10 23q7 8 33 23q30 17 93 36q7 2 18 8q23 12 39 12h7q19 -4 20 -22q1 -32 5 -97q5 6 13 19q65 85 149 88h5q99 0 155 -161q23 51 52 87q69 85 152 85h2q124 -2 150 -260q4 -40 4 -87q0 -106 -20 -246l21 9q22 9 38 12h4q14 0 17 -23zM579 638 q-7 -52 -159 -73q-82 -11 -178 -11h-16q-10 -85 -10 -160v-25q7 -286 201 -286q16 43 29 127q5 33 17.5 49t44.5 26q16 5 26 5t14 -5q6 -6 6 -21q0 -9 -2 -21q-21 -140 -57 -187q-27 -36 -51 -46q-20 -9 -67 -10h-9q-138 0 -201 94q-52 78 -57 233v29q0 81 13 202 q-33 2 -74 7q-24 3 -37 9q-6 3 -6 10q0 11 14 30q26 36 75 36q7 0 15 -1q29 -3 24 -3q10 73 10 109v6v6q0 30 10 45q10 17 42 30q20 8 31.5 8t15.5 -8q7 -16 9 -38q0 -33 -14 -143q-1 -7 -3 -28l162 -21q65 -9 74 -9h1v5q0 28 10 44q11 17 41 29q20 8 32 8t16 -8 q7 -16 8 -38v-3v-2z" />
</font>
</defs>
</svg>
